<svg width="24" height="24" viewBox="0 0 24 24" fill="currentcolor" stroke-width="2" xmlns="http://www.w3.org/2000/svg" role="img" data-contentful-entry-id="" data-contentful-field-id=""><!--[--><path d="M 23.498438,5.81639 C 23.222439,4.7078 22.409253,3.8347 21.376599,3.53841 19.504978,3 12.000023,3 12.000023,3 c 0,0 -7.5050005,0 -9.3766687,0.53841 C 1.590775,3.83475 0.7775235,4.7078 0.5015053,5.81639 0,7.82578 0,12.0182 0,12.0182 c 0,0 0,4.1924 0.5015053,6.2018 0.2760182,1.1086 1.0892697,1.9453 2.121849,2.2416 C 4.4950225,21 12.000023,21 12.000023,21 c 0,0 7.504955,0 9.376576,-0.5384 1.032654,-0.2963 1.84584,-1.133 2.121839,-2.2416 C 24,16.2106 24,12.0182 24,12.0182 c 0,0 0,-4.19242 -0.501562,-6.20181 z M 9.545466,15.8246 V 8.2118 l 6.272706,3.8065 z"></path><!--]--><!----><defs><linearGradient id="mist-60a45589-b960-46e2-ab31-cf1058d7052b"><stop offset="0%" stop-color="#34D399"></stop><stop offset="100%" stop-color="#FF6BFF"></stop></linearGradient><linearGradient id="green-gradient-60a45589-b960-46e2-ab31-cf1058d7052b"><stop offset="0%" stop-color="#C3FF62"></stop><stop offset="100%" stop-color="#1FF1A5"></stop></linearGradient><linearGradient id="pink-gradient-60a45589-b960-46e2-ab31-cf1058d7052b"><stop offset="0%" stop-color="#FF5555"></stop><stop offset="100%" stop-color="#B664FF"></stop></linearGradient><linearGradient id="purple-ultraviolet-gradient-60a45589-b960-46e2-ab31-cf1058d7052b"><stop offset="0%" stop-color="#B664FF"></stop><stop offset="100%" stop-color="#444CE7"></stop></linearGradient></defs></svg>